<svg xmlns="http://www.w3.org/2000/svg" viewBox="0 0 24 24" stroke="currentColor" stroke-width="1.75" stroke-linecap="round" stroke-linejoin="round" fill="none">
  <path d="M12.4 2.7c.9-.9 2.5-.9 3.4 0l5.5 5.5c.9.9.9 2.5 0 3.4l-5.5 5.5c-.9.9-2.5.9-3.4 0l-5.5-5.5c-.9-.9-.9-2.5 0-3.4l5.5-5.5z" />
  <path d="M3.4 14.6l4.1 4.1c.4.4.4 1 0 1.4l-1.4 1.4c-.4.4-1 .4-1.4 0l-4.1-4.1c-.4-.4-.4-1 0-1.4l1.4-1.4c.4-.4 1-.4 1.4 0z" />
  <path d="M9.4 20.6l1.8-1.8" />
  <circle cx="14.1" cy="9.9" r="1" />
</svg>
