<?xml version="1.0" encoding="UTF-8"?>
<svg xmlns="http://www.w3.org/2000/svg" viewBox="0 0 24 24" width="24" height="24" fill="none" stroke="currentColor" stroke-width="2" stroke-linecap="round" stroke-linejoin="round">
  <circle cx="12" cy="12" r="3"/>
  <path d="M19.4 15 a1.7 1.7 0 0 0 .3 1.8 l.1 .1 a2 2 0 1 1 -2.8 2.8 l-.1 -.1 a1.7 1.7 0 0 0 -1.8 -.3 a1.7 1.7 0 0 0 -1 1.5 V21 a2 2 0 0 1 -4 0 v-.1 a1.7 1.7 0 0 0 -1.1 -1.5 a1.7 1.7 0 0 0 -1.8 .3 l-.1 .1 a2 2 0 1 1 -2.8 -2.8 l.1 -.1 a1.7 1.7 0 0 0 .3 -1.8 a1.7 1.7 0 0 0 -1.5 -1 H3 a2 2 0 0 1 0 -4 h.1 a1.7 1.7 0 0 0 1.5 -1.1 a1.7 1.7 0 0 0 -.3 -1.8 l-.1 -.1 a2 2 0 1 1 2.8 -2.8 l.1 .1 a1.7 1.7 0 0 0 1.8 .3 H9 a1.7 1.7 0 0 0 1 -1.5 V3 a2 2 0 0 1 4 0 v.1 a1.7 1.7 0 0 0 1 1.5 a1.7 1.7 0 0 0 1.8 -.3 l.1 -.1 a2 2 0 1 1 2.8 2.8 l-.1 .1 a1.7 1.7 0 0 0 -.3 1.8 V9 a1.7 1.7 0 0 0 1.5 1 H21 a2 2 0 0 1 0 4 h-.1 a1.7 1.7 0 0 0 -1.5 1 z"/>
</svg>
